<?xml version="1.0" encoding="UTF-8"?>
<svg id="Layer_2" data-name="Layer 2" xmlns="http://www.w3.org/2000/svg" viewBox="0 0 388.89 100.52">
  <g id="Calque_1" data-name="Calque 1">
    <g>
      <path d="M113.73,100.52c-7.46,0-13.83-1.66-19.1-4.99-5.27-3.33-9.3-7.87-12.1-13.64-2.79-5.76-4.21-12.28-4.25-19.57.04-7.41,1.51-13.99,4.39-19.74,2.88-5.74,6.98-10.25,12.3-13.53,5.32-3.29,11.64-4.93,18.96-4.93,8.22,0,15.18,2.07,20.87,6.2s9.42,9.77,11.16,16.92l-16.08,4.36c-1.25-3.89-3.33-6.91-6.23-9.08-2.9-2.17-6.21-3.25-9.92-3.25-4.2,0-7.66,1-10.39,2.98s-4.73,4.72-6.03,8.21c-1.3,3.49-1.94,7.44-1.94,11.86,0,6.88,1.54,12.45,4.62,16.69,3.08,4.25,7.66,6.37,13.74,6.37,4.29,0,7.67-.99,10.15-2.95,2.48-1.97,4.34-4.8,5.6-8.51l16.49,3.69c-2.23,7.37-6.14,13.03-11.73,16.99-5.59,3.95-12.42,5.93-20.51,5.93Z"/>
      <path d="M151.91,100.52l.35-84.03L168.4,0v83.04l-16.5,17.48Z"/>
      <path d="M296.51,100.52V18.5l16.15-16.49v81.03l-16.15,17.48Z"/>
      <path d="M198.95,100.52c-5.23,0-9.65-.99-13.27-2.98s-6.36-4.64-8.21-7.94-2.78-6.95-2.78-10.92c0-3.49.58-6.62,1.74-9.42,1.16-2.79,2.95-5.21,5.36-7.24,2.41-2.03,5.54-3.7,9.38-4.99,2.9-.94,6.31-1.79,10.22-2.55,3.91-.76,8.15-1.46,12.73-2.11,4.58-.64,9.37-1.35,14.37-2.11l-5.76,3.28c.04-5-1.07-8.69-3.35-11.06s-6.12-3.55-11.53-3.55c-3.26,0-6.41.76-9.45,2.28-3.04,1.52-5.16,4.13-6.37,7.84l-14.74-4.62c1.79-6.12,5.19-11.03,10.22-14.74,5.03-3.71,11.81-5.56,20.34-5.56,6.43,0,12.09,1.05,16.99,3.15,4.89,2.1,8.52,5.54,10.89,10.32,1.3,2.54,2.08,5.15,2.35,7.81.27,2.66.4,5.55.4,8.68l-1.4,28.96-12.74,17.48v-17.69l2.34,2.55c-3.26,5.23-7.07,9.06-11.43,11.49-4.36,2.43-9.8,3.65-16.32,3.65ZM202.17,87.66c3.66,0,6.79-.65,9.38-1.95,2.59-1.29,4.66-2.88,6.2-4.76,1.54-1.88,2.58-3.64,3.12-5.29.85-2.06,1.33-4.41,1.44-7.07s.17-4.82.17-6.47l4.96,1.47c-4.87.76-9.05,1.43-12.53,2.01s-6.48,1.13-8.98,1.64c-2.5.51-4.71,1.08-6.63,1.71-1.88.67-3.46,1.45-4.76,2.34-1.3.9-2.29,1.92-2.98,3.08-.69,1.16-1.04,2.53-1.04,4.09,0,1.79.45,3.36,1.34,4.72.89,1.36,2.2,2.45,3.92,3.25,1.72.8,3.85,1.21,6.4,1.21Z"/>
      <path d="M277.81,100.52c-6.66,0-12.47-1.67-17.42-5.03-4.96-3.35-8.8-7.91-11.53-13.67-2.73-5.76-4.09-12.26-4.09-19.5s1.37-13.86,4.12-19.6c2.75-5.74,6.64-10.27,11.69-13.6,5.05-3.33,10.99-4.99,17.83-4.99s12.65,1.66,17.32,4.99c4.67,3.33,8.21,7.87,10.62,13.64,2.41,5.76,3.62,12.29,3.62,19.57s-1.21,13.68-3.62,19.47c-2.41,5.79-6.01,10.35-10.79,13.7-4.78,3.35-10.7,5.03-17.76,5.03ZM280.29,86.05c4.33,0,7.83-1,10.49-2.98s4.6-4.77,5.83-8.34c1.23-3.58,1.84-7.71,1.84-12.4s-.61-8.88-1.84-12.43c-1.23-3.55-3.14-6.32-5.73-8.31-2.59-1.99-5.94-2.98-10.05-2.98-4.33,0-7.91,1.06-10.72,3.19-2.82,2.12-4.89,4.98-6.23,8.58-1.34,3.6-2.01,7.58-2.01,11.96s.66,8.43,1.98,12.03c1.32,3.6,3.34,6.45,6.06,8.54,2.73,2.1,6.19,3.15,10.39,3.15ZM298.45,98.51v-50.8h-2.01v-31.06L312.76,0l-1.54,83.04-12.77,15.47Z"/>
      <path d="M355.94,100.52c-7.33,0-13.76-1.58-19.3-4.76-5.54-3.17-9.86-7.57-12.97-13.2-3.11-5.63-4.66-12.11-4.66-19.43,0-7.91,1.52-14.77,4.56-20.6,3.04-5.83,7.26-10.35,12.67-13.57,5.41-3.21,11.66-4.82,18.76-4.82,7.51,0,13.88,1.75,19.13,5.26,5.25,3.51,9.15,8.46,11.69,14.84,2.55,6.39,3.51,13.92,2.88,22.58h-16.01v-5.9c-.05-7.86-1.43-13.6-4.16-17.22-2.73-3.62-7.01-5.43-12.87-5.43-6.61,0-11.53,2.04-14.74,6.13-3.22,4.09-4.82,10.06-4.82,17.92,0,7.33,1.61,13,4.82,17.02,3.22,4.02,7.91,6.03,14.07,6.03,3.98,0,7.4-.88,10.29-2.65,2.88-1.76,5.1-4.32,6.67-7.68l15.95,4.83c-2.77,6.52-7.05,11.59-12.83,15.21-5.79,3.62-12.16,5.43-19.13,5.43ZM331.01,66.81v-12.19h49.79v12.19h-49.79Z"/>
      <g>
        <polygon points="29.1 77.62 16.08 68.26 0 79.46 0 98.51 29.1 77.62"/>
        <polygon points="44.1 77.59 72.36 97.82 72.36 78.81 57.05 68.26 44.1 77.59"/>
        <polygon points="72.38 27.45 72.38 46.5 44.58 66.46 36.67 72.16 28.76 66.49 .02 45.96 .02 26.9 28.43 47.48 28.76 47.73 28.76 16.79 44.58 0 44.58 47.59 72.38 27.45"/>
      </g>
    </g>
  </g>
</svg>